<?xml version="1.0" encoding="UTF-8" standalone="no"?>
<!DOCTYPE svg PUBLIC "-//W3C//DTD SVG 1.1//EN" "http://www.w3.org/Graphics/SVG/1.1/DTD/svg11.dtd">
<svg width="100%" height="100%" viewBox="0 0 320 320" version="1.1" xmlns="http://www.w3.org/2000/svg" xmlns:xlink="http://www.w3.org/1999/xlink" xml:space="preserve" xmlns:serif="http://www.serif.com/" style="fill-rule:evenodd;clip-rule:evenodd;stroke-linejoin:round;stroke-miterlimit:2;">
    <g id="Artboard1" transform="matrix(0.666667,0,0,0.666667,666.667,-360)">
        <rect x="-1000" y="540" width="480" height="480" style="fill:none;"/>
        <clipPath id="_clip1">
            <rect x="-1000" y="540" width="480" height="480"/>
        </clipPath>
        <g clip-path="url(#_clip1)">
            <g transform="matrix(1.5,0,0,1.5,-1300,-600)">
                <path d="M360,760C448.306,760 520,831.694 520,920C520,1008.31 448.306,1080 360,1080C271.694,1080 200,1008.31 200,920C200,831.694 271.694,760 360,760ZM335,945L335,975C335,988.798 346.202,1000 360,1000C373.798,1000 385,988.798 385,975L385,945L415,945C428.798,945 440,933.798 440,920C440,906.202 428.798,895 415,895L385,895L385,865C385,851.202 373.798,840 360,840C346.202,840 335,851.202 335,865L335,895L305,895C291.202,895 280,906.202 280,920C280,933.798 291.202,945 305,945L335,945Z" style="fill:rgb(247,176,186);"/>
            </g>
        </g>
    </g>
</svg>
